<?xml version="1.0" encoding="utf-8"?>
<!-- Generator: Adobe Illustrator 25.2.1, SVG Export Plug-In . SVG Version: 6.00 Build 0)  -->
<svg version="1.1" id="Layer_1" xmlns="http://www.w3.org/2000/svg" xmlns:xlink="http://www.w3.org/1999/xlink" x="0px" y="0px"
	 viewBox="0 0 830 830" style="enable-background:new 0 0 830 830;" xml:space="preserve">
<style type="text/css">
	.st0{fill:#B99BC3;}
	.st1{fill:#5C1D62;}
</style>
<g id="Layer_2_1_">
	<g id="Layer_1-2">
		<path class="st0" d="M399.4,227.7c-8.6,0-15.6,7-15.6,15.6v31.2c0,8.6,7,15.6,15.6,15.6h31.2c8.6,0,15.6-7,15.6-15.6v-31.2
			c0-8.6-7-15.6-15.6-15.6H399.4z M427.5,271.4h-25v-25h25V271.4z"/>
		<path class="st1" d="M640.1,348.6c-1.1-11.9-11.1-20.9-23-21H456.4c-11.9,0.1-21.8,9.2-22.9,21c-7.9,92-7.9,184.4,0,276.4
			c1.1,11.8,11,20.9,22.9,21h160.7c11.9-0.1,21.8-9.2,22.9-21C648,533,648,440.6,640.1,348.6z M621.4,623.4
			c-0.3,2.2-2.1,3.8-4.3,3.9H456.4c-2.2-0.1-4-1.8-4.3-3.9c-7.8-90.9-7.8-182.3,0-273.1c0.3-2.2,2.1-3.8,4.3-3.9h160.7
			c2.2,0.1,4,1.8,4.3,3.9C629.2,441.1,629.2,532.5,621.4,623.4L621.4,623.4z"/>
		<path class="st1" d="M402.5,555.5V543c0-1.7-1.4-3.1-3.1-3.1c0,0,0,0,0,0H214.2c-2.2-0.1-4-1.7-4.3-3.9c-1.7-19.5-3.1-39-4.2-58.5
			h193.7c1.7,0,3.1-1.4,3.1-3.1v-12.5c0-1.7-1.4-3.1-3.1-3.1l0,0H204.8c-3.9-84-2.2-168.3,5.2-252.1c0.3-2.2,2.1-3.9,4.3-3.9h401.6
			c2.2,0.1,4,1.7,4.3,3.9c2.7,30.9,4.5,61.9,5.7,93c0.1,1.7,1.4,3,3.1,3h12.5c1.7,0,3.1-1.4,3.1-3.1c0,0,0-0.1,0-0.1
			c-1.1-31.6-3-63.1-5.8-94.5c-1.1-11.8-11-20.9-22.9-20.9H214.2c-11.9,0.1-21.8,9.2-23,21c-9.7,110.7-9.7,222,0,332.6
			c1.1,11.9,11,20.9,23,21h185.2C401.1,558.6,402.5,557.2,402.5,555.5C402.5,555.5,402.5,555.5,402.5,555.5z"/>
		<path class="st1" d="M399.2,610.4c-31,1.5-61.7,7.5-90.9,17.8c-1.6,0.6-2.5,2.4-1.9,4c0,0,0,0,0,0l4.3,11.7
			c0.6,1.6,2.3,2.4,3.9,1.8c27.4-9.6,56-15.3,85-16.7c1.6-0.1,2.9-1.4,2.9-3.1v-12.5c0-1.8-1.4-3.2-3.2-3.2
			C399.3,610.4,399.2,610.4,399.2,610.4z"/>
		<path class="st0" d="M530.5,408.8h18.7c8.6,0,15.6-7,15.6-15.6v-18.7c0-8.6-7-15.6-15.6-15.6h-18.7c-8.6,0-15.6,7-15.6,15.6v18.7
			C514.9,401.8,521.9,408.7,530.5,408.8C530.5,408.8,530.5,408.8,530.5,408.8z M533.6,377.6h12.5v12.5h-12.5V377.6z"/>
		<path class="st0" d="M511.8,596.1H568c1.7,0,3.1,1.4,3.1,3.1v12.5c0,1.7-1.4,3.1-3.1,3.1h-56.2c-1.7,0-3.1-1.4-3.1-3.1v-12.5
			C508.7,597.5,510.1,596.1,511.8,596.1z"/>
	</g>
</g>
</svg>
