<?xml version="1.0" encoding="utf-8"?>
<!-- Generator: Adobe Illustrator 17.1.0, SVG Export Plug-In . SVG Version: 6.00 Build 0)  -->
<!DOCTYPE svg PUBLIC "-//W3C//DTD SVG 1.1//EN" "http://www.w3.org/Graphics/SVG/1.1/DTD/svg11.dtd">
<svg version="1.1" id="Layer_1" xmlns="http://www.w3.org/2000/svg" xmlns:xlink="http://www.w3.org/1999/xlink" x="0px" y="0px"
	 viewBox="206 232 100 48" enable-background="new 206 232 100 48" xml:space="preserve">
<title>stroke</title>
<g>
	<g>
		<g>
			<path fill="#EA551B" d="M259.6,241.4c-6.1-1.6-9.8-2.7-11.2-3.3c-0.8-0.4-4.8-1-12.1-2c-6.2-2.8-11.1-3.8-14.3-3
				c-3.1-0.7-5-0.8-5.8-0.5c-5.3-0.4-8.6,0.7-10,3.2l25,11.2c2.2,0.6,4.4,1.3,6.5,2.2c7.3,2,11.4,3.3,12.2,3.6l0.1,0.1l-0.6,1.4
				c-0.1,0.3-0.2,0.5-0.3,0.8l6.7,3c0.8-1.1,1.4-2.2,1.9-3c9,2.9,14,3.5,14.8,1.6c0.2-0.6,0.3-1.2,0.4-1.9l0.9-1.4
				c0.3-0.6,0.3-1.4,0-2.6c0.5-1.5,0.6-2.8,0.2-3.7c-0.6-1.1-2.5-2.4-5.8-3.9L268,243L259.6,241.4z"/>
		</g>
	</g>
	<g>
		<g>
			<path fill="#F29700" d="M299.6,270.6c-0.6,0.1-1.3,0-1.9-0.3c-2-1-4.1-1.6-6.3-2c0.1-0.1,0.1-0.1,0-0.2l-0.2-0.2
				c-3.7-2.2-6-3.7-7-4.4c-1.3-1-2.4-2.1-3.5-3.3c-2.8-2.3-4.6-4.2-5.6-5.8l-5.5-3.6c-0.1,0.2-0.2,0.5-0.3,0.8l-0.8,0.9
				c-1.7,1.7-2,3.5-1,5.1c2,4.3,3.5,6.8,4.5,7.6c3,3.6,5,5.8,6,6.6c0.5,0.3,1.6,1.1,3.3,2.3c11.1,6,18.6,7,22.6,2.9l0.4-0.4
				c0.6-0.6,1.1-1.3,1.6-2L299.6,270.6z"/>
		</g>
	</g>
</g>
</svg>
