<?xml version="1.0" encoding="utf-8"?>
<!-- Generator: Adobe Illustrator 25.2.1, SVG Export Plug-In . SVG Version: 6.00 Build 0)  -->
<svg version="1.1" id="Layer_1" xmlns="http://www.w3.org/2000/svg" xmlns:xlink="http://www.w3.org/1999/xlink" x="0px" y="0px"
	 viewBox="0 0 830 830" style="enable-background:new 0 0 830 830;" xml:space="preserve">
<style type="text/css">
	.st0{fill:#5C1D62;}
	.st1{fill:#B99BC3;}
</style>
<g id="Layer_2_1_">
	<g id="Layer_1-2">
		<path class="st0" d="M594.2,413.8H418.9c-1.6,0-2.8-1.3-2.8-2.8V235.7c0-5.4-2.2-10.6-6.1-14.4c-3.9-3.8-9.2-5.8-14.6-5.5
			c-1.5,0.1-2.9,0.1-4.4,0.2c-104.5,6.7-188.4,90.6-195.2,195.2c-7.6,115.4,79.8,215.2,195.2,222.9c4.7,0.3,9.4,0.5,14.1,0.5
			c4.5,0,9-0.1,13.6-0.4c104.5-6.8,188.4-90.7,195.1-195.3c0.1-1.5,0.2-2.9,0.2-4.4l0,0c0.3-5.4-1.7-10.7-5.5-14.6
			C604.8,416,599.6,413.8,594.2,413.8z M596.8,437.8c-6.2,96.1-83.2,173.2-179.3,179.4c-106.1,7-197.8-73.3-204.8-179.4
			c-0.6-8.5-0.6-17,0-25.5c6.2-96.1,83.3-173.2,179.3-179.3l4.1-0.2h0.1c0.7,0,1.4,0.3,1.9,0.8c0.6,0.6,0.9,1.3,0.9,2.1V411
			c0,10.9,8.9,19.8,19.8,19.8h175.2c0.8,0,1.6,0.3,2.1,0.9c0.6,0.6,0.8,1.3,0.8,2.1C597,435.1,596.9,436.5,596.8,437.8L596.8,437.8z
			"/>
		<path class="st1" d="M634.4,368.1c-14.5-88.6-84-158-172.6-172.5c-10.8-1.7-21,5.7-22.7,16.5c-0.2,1-0.2,2.1-0.2,3.1v155.9
			c0,11,8.9,20,19.9,20h156c11,0,19.9-8.9,19.9-19.9C634.6,370.2,634.5,369.2,634.4,368.1L634.4,368.1z M617,373.2
			c-0.5,0.7-1.3,1.1-2.2,1.1h-156c-1.7,0-3-1.4-3-3v-156c0-0.9,0.4-1.7,1.1-2.2c0.5-0.4,1.2-0.7,1.8-0.7h0.5
			c81.4,13.3,145.2,77.1,158.5,158.5C617.8,371.7,617.5,372.6,617,373.2z"/>
	</g>
</g>
</svg>
