<?xml version="1.0" encoding="utf-8"?>
<!-- Generator: Adobe Illustrator 25.2.1, SVG Export Plug-In . SVG Version: 6.00 Build 0)  -->
<svg version="1.1" id="Layer_1" xmlns="http://www.w3.org/2000/svg" xmlns:xlink="http://www.w3.org/1999/xlink" x="0px" y="0px"
	 viewBox="0 0 830 830" style="enable-background:new 0 0 830 830;" xml:space="preserve">
<style type="text/css">
	.st0{fill:#5C1D62;}
	.st1{fill:#B99BC3;}
</style>
<g id="Layer_2_1_">
	<g id="Layer_1-2">
		<path class="st0" d="M581.1,495.4l0.1-0.1c9.6-8.3,14.9-20.7,14.9-34.9c0-26.8-18.6-45.4-45.1-45.4h-1.6
			c-26.6,0-45.1,18.7-45.1,45.4c0,14.3,5.3,26.7,15,35c-11.1,4.3-21.2,10.7-29.6,19.1c-11.2-9.1-24.1-16-37.8-20.5
			c1.7-1.2,3.3-2.4,4.9-3.7c12.8-11.1,19.9-27.7,19.9-46.8c0-35.9-24.9-60.9-60.4-60.9h-2.1c-35.6,0-60.5,25-60.5,60.9
			c0,19.2,7.2,36,20.3,47.1c1.4,1.2,2.9,2.4,4.5,3.4c-13.7,4.5-26.5,11.4-37.8,20.5c-8.5-8.3-18.6-14.8-29.6-19.1l0.1-0.1
			c9.5-8.3,14.9-20.7,14.9-34.9c0-26.8-18.6-45.4-45.1-45.4h-1.6c-26.6,0-45.1,18.7-45.1,45.4c0,14.2,5.3,26.6,15,34.9
			c-33.4,12.8-55.5,44.8-55.5,80.5v14.6c0,1.5,1.2,2.7,2.7,2.7h10.8c1.5,0,2.7-1.2,2.7-2.7v-14.6c0.1-38.8,31.7-70.2,70.5-70
			c18,0.1,35.4,7.1,48.4,19.6c-20.8,21.9-32.4,51-32.4,81.3v21.8c0,1.5,1.2,2.7,2.7,2.7h10.8c1.5,0,2.7-1.2,2.7-2.7v-21.8
			c0-56.4,46.1-102.3,102.7-102.3s102.7,45.9,102.7,102.3v21.8c0,1.5,1.2,2.7,2.7,2.7h10.8c1.5,0,2.7-1.2,2.7-2.7v-21.8
			c0-30.2-11.6-59.3-32.4-81.3c28-26.9,72.5-25.9,99.3,2.1c12.5,13,19.5,30.4,19.6,48.4v14.6c0,1.5,1.2,2.7,2.7,2.7h10.8
			c1.5,0,2.7-1.2,2.7-2.7l0,0v-14.6C636.5,540.1,614.5,508.1,581.1,495.4z M549.4,489.7c-7.8,0-14.5-2.2-19.5-6.5
			c-6.1-5.2-9.4-13.3-9.4-22.7c0-17.8,11.3-29.2,28.9-29.2h1.5c17.6,0,28.9,11.5,28.9,29.2c0,9.4-3.3,17.4-9.3,22.6
			c-5,4.3-11.7,6.6-19.6,6.6H549.4z M413.9,488.1c-11.7,0-22-3.4-29.7-10c-9.4-8-14.5-20.3-14.5-34.7c0-27.1,17.4-44.7,44.2-44.7
			h2.1c26.9,0,44.2,17.5,44.2,44.7c0,14.3-5.1,26.5-14.3,34.5c-7.7,6.7-18,10.2-30,10.2H413.9z M279.1,489.7
			c-7.8,0-14.5-2.2-19.5-6.5c-6.1-5.2-9.4-13.3-9.4-22.7c0-17.8,11.4-29.2,28.9-29.2h1.5c17.6,0,28.9,11.5,28.9,29.2
			c0,9.4-3.3,17.4-9.3,22.6c-5,4.3-11.7,6.6-19.6,6.6H279.1z"/>
		<path class="st1" d="M533.9,198.8c-14.9,0-27,12.1-27,27c0,5.7,1.8,11.2,5.1,15.8l-50.2,66.9c-7-2.5-14.8-2-21.4,1.5l-39.2-39.2
			c6.9-13.2,1.8-29.6-11.4-36.5c-13.2-6.9-29.6-1.8-36.5,11.4c-4.7,9-4,20,2,28.3L305,340.9c-14.1-5-29.6,2.4-34.6,16.5
			c-5,14.1,2.4,29.6,16.5,34.6c14.1,5,29.6-2.4,34.6-16.5c3-8.4,1.6-17.6-3.5-24.8l50.2-66.9c7,2.5,14.8,2,21.4-1.5l39.2,39.2
			c-2,3.8-3.1,8.1-3.1,12.5c0,14.9,12,27.1,26.9,27.1c14.9,0,27.1-12,27.1-26.9c0-5.7-1.8-11.3-5.1-15.9l50.2-66.9
			c14,5,29.5-2.3,34.5-16.4c5-14-2.3-29.5-16.4-34.5C540.1,199.3,537,198.8,533.9,198.8z M296.1,377.2c-6,0-10.8-4.8-10.8-10.8
			c0-6,4.8-10.8,10.8-10.8s10.8,4.8,10.8,10.8l0,0C306.9,372.3,302.1,377.1,296.1,377.2z M377.2,269.1c-6,0-10.8-4.8-10.8-10.8
			c0-6,4.8-10.8,10.8-10.8c6,0,10.8,4.8,10.8,10.8C388,264.2,383.1,269.1,377.2,269.1z M452.8,344.7c-6,0-10.8-4.8-10.8-10.8
			s4.8-10.8,10.8-10.8c6,0,10.8,4.8,10.8,10.8c0,0,0,0,0,0C463.6,339.9,458.8,344.7,452.8,344.7L452.8,344.7z M533.9,236.6
			c-6,0-10.8-4.9-10.8-10.9c0-6,4.9-10.8,10.9-10.8c6,0,10.8,4.9,10.8,10.8C544.8,231.8,539.9,236.6,533.9,236.6
			C533.9,236.6,533.9,236.6,533.9,236.6z"/>
	</g>
</g>
</svg>
